<svg width="40" height="37" viewBox="0 0 40 37" fill="none" xmlns="http://www.w3.org/2000/svg">
<rect width="40" height="37" rx="18.5" fill="#9E92E8"/>
<path d="M21 27.5V29.5H19V27.5H11C10.7348 27.5 10.4804 27.3946 10.2929 27.2071C10.1054 27.0196 10 26.7652 10 26.5V10.5C10 10.2348 10.1054 9.98043 10.2929 9.79289C10.4804 9.60536 10.7348 9.5 11 9.5H17C17.5675 9.49997 18.1285 9.62069 18.6457 9.85414C19.163 10.0876 19.6246 10.4284 20 10.854C20.3754 10.4284 20.837 10.0876 21.3543 9.85414C21.8715 9.62069 22.4325 9.49997 23 9.5H29C29.2652 9.5 29.5196 9.60536 29.7071 9.79289C29.8946 9.98043 30 10.2348 30 10.5V26.5C30 26.7652 29.8946 27.0196 29.7071 27.2071C29.5196 27.3946 29.2652 27.5 29 27.5H21ZM28 25.5V11.5H23C22.4696 11.5 21.9609 11.7107 21.5858 12.0858C21.2107 12.4609 21 12.9696 21 13.5V25.5H28ZM19 25.5V13.5C19 12.9696 18.7893 12.4609 18.4142 12.0858C18.0391 11.7107 17.5304 11.5 17 11.5H12V25.5H19Z" fill="white"/>
</svg>
